<?xml version="1.0" encoding="UTF-8"?>
<svg id="Layer_1" data-name="Layer 1" xmlns="http://www.w3.org/2000/svg" viewBox="0 0 577.08 712.01">
  <defs>
    <style>
      .cls-1, .cls-2, .cls-3 {
        fill: #454545;
      }

      .cls-4 {
        fill: none;
        stroke: #fff;
      }

      .cls-4, .cls-5 {
        stroke-width: 10px;
      }

      .cls-4, .cls-5, .cls-6 {
        stroke-miterlimit: 10;
      }

      .cls-5 {
        fill: #fff;
      }

      .cls-5, .cls-6 {
        stroke: #000;
      }

      .cls-2 {
        font-size: 144.82px;
      }

      .cls-2, .cls-3 {
        font-family: BodoniSvtyTwoITCTT-Bold, 'Bodoni 72';
        font-weight: 700;
      }

      .cls-3 {
        font-size: 222.61px;
      }

      .cls-6 {
        stroke-width: 9px;
      }
    </style>
  </defs>
  <g>
    <path d="M463.14,81.66c-6.64,5.99-13.52,11.74-19.85,18.05-19.6,19.54-38.89,39.39-58.48,58.94-14.55,14.52-29.38,28.74-44.08,43.09-.2-.87-.3-1.78-.59-2.62-6.86-19.67-13.6-39.38-20.64-58.99-10.05-28.01-20.3-55.94-30.54-83.89l-2.94-8.62c-.33,0-.67.02-1,.03-18.29,51.45-36.58,102.9-54.87,154.38-44.25-43.2-88.87-86.77-133.49-130.34-.44-.26-.63-.68-1.01-.65.16.22.2,1.17.36,1.4.1.59.13,1.2.31,1.76,7.53,24.19,15.43,48.28,22.52,72.6,7.19,24.64,13.59,49.52,20.39,74.49,1.22-.21,2.39-.36,3.53-.61,30.39-6.62,60.91-12.5,92.02-14.44,17.24-1.08,34.51-1.64,51.76-2.43,17.45.71,34.89,1.41,52.34,2.12,1.2.19,2.41.38,3.61.56,30.47.87,59.98,8.08,90.18,13.71,1.02-3.96,1.97-7.86,3.03-11.73,9.47-34.43,19.01-68.85,28.42-103.3,2.08-7.63,5.22-15.16,7.06-22.85,1.86-3.67,2.2-7.56,4.27-11.66-4.54,4.05-8.44,7.51-12.31,11ZM165.2,192.51c-5.07-.15-9.54-4.98-9.37-10.11.18-5.51,4.05-9.25,9.48-9.16,5.05.09,9.58,4.78,9.59,9.93,0,4.51-5.15,9.47-9.7,9.34ZM292.12,176.63c-1.19,1.4-3.09,2.21-4.66,3.3-9.31-2.91-12.35-7.38-10.26-14.83,1.35-4.81,4.66-7.01,9.36-7.57,4.84.02,7.74,2.78,9.26,7.01,1.75,4.83-.77,8.65-3.7,12.09ZM404.45,191.24c-4.94-.38-9.6-5.08-9.35-9.42.3-5.35,5.65-10.51,10.6-10.23,4.94.27,9.49,4.61,9.28,8.86-.29,5.71-5.61,11.17-10.53,10.79Z"/>
    <path d="M429.35,239.33c-.98,6.6-1.96,14.99-2.94,21.65-10.35-1.86-19.55-3.7-28.81-5.13-10.13-1.56-20.29-3.35-30.5-3.97-26.84-1.64-53.72-2.69-80.59-3.98-19.06.68-38.14,1.06-57.18,2.13-25.09,1.42-49.87,5.18-74.32,11.08-1.56.38-3.18.57-4.87.87-2.19-7.42-4.27-14.47-6.5-22.06,13.81-2.64,27-5.45,40.29-7.67,34.18-5.7,68.46-8.22,102.79-8.16.33-.58,1.23-.08,3.24,0,16.47.6,32.98-.37,49.4.92,19.06,1.49,38.08,5.42,57.05,7.83,8.43,1.08,16.5,3.84,24.89,5.23,2.56.43,5.42,1.27,8.05,1.26Z"/>
    <path d="M242.34,148.57c-5.01,14.13-9.89,27.88-14.82,41.79-6.22-6-11.9-11.47-17.58-16.94-8.33-7.68-16.67-15.36-25.04-23.07,3.16-19.8,6.33-39.69,9.54-59.81,8.35,10.24,16.37,20.06,24.4,29.88,5.84,6.9,11.7,13.77,17.52,20.69,2.21,2.63,4.3,5.36,5.98,7.46Z"/>
    <path d="M381.38,155.6c-9.2,8.82-18.62,17.41-27.84,26.22-3.71,3.54-7.08,7.44-10.77,11.35-2.22-6.03-4.43-12.02-6.63-18.01-2.77-6.96-5.61-13.9-8.25-20.91-.39-1.02-.27-2.75.37-3.56,15.04-19.11,30.18-38.14,46.02-58.09.73,5.25,1.31,9.38,1.88,13.51,1.46,8.38,3.08,16.75,4.33,25.16.99,6.69,1.63,13.43,2.19,20.17.12,1.36-.37,3.26-1.3,4.16Z"/>
    <path d="M299.5,21.58c-2.27,6.04-6.68,9.47-13.04,10.11-7.4.74-12.58-2.09-15.79-8.25-3.44-5.91-2.36-16.01,2.06-19.33,7.43-5.58,17.03-5.46,22.82.29,4.65,4.41,6.21,11.18,3.95,17.18Z"/>
    <path d="M98.68,47.5c-1.92,5.93-5.61,10.77-12.41,11.48-6.29.65-11.92-.82-15.17-7.04-4.79-4.19-3.24-17.5,3.65-21.58,6.2-3.67,12.51-4.88,18.97-.57,5.78,3.64,7.65,9.4,4.96,17.71Z"/>
    <path d="M500.53,48.23c-1.7,5.25-4.75,9.53-10.57,10.54-6.14,1.06-11.1-1.33-14.84-6.28-3.07-1.14-4.16-3.64-4.26-6.61-.12-3.58-.65-7.32.21-10.68.55-2.16,3.04-4.13,5.09-5.55,4.71-3.24,13.16-2.61,18.11.95,6.58,5.35,8.54,10.6,6.26,17.63Z"/>
    <path d="M199.84,78.92c-5.16,6.95-13.33,7.22-21.04.7-5.03-6.26-5.69-14.41-1.56-19.25,4.94-5.79,12.8-7.01,19.49-3.01,7.89,5.03,9.11,13.47,3.11,21.56Z"/>
    <path d="M393.05,77.43c-3.03,4.87-7.26,7.28-13.18,6.41-5.21-.76-9.48-2.59-10.98-8.21-3.8-5.01-3.91-8.41.23-14.72,3.85-5.87,12.94-7.38,18.62-3.17,7,2.38,9.51,12.93,5.31,19.69Z"/>
  </g>
  <line class="cls-6" x1="0" y1="347.74" x2="577.08" y2="347.74"/>
  <g>
    <g>
      <path class="cls-1" d="M142.15,335.71c0,.63-.97.95-2.9.95h-47.79c-1.35,0-2.03-.27-2.03-.8s.67-.8,2.03-.8h4.92c4.44.06,7.14-.44,8.11-1.52.29-.31.43-2.21.43-5.68v-51.35c-3.13,5.23-7.23,13.56-12.31,24.97l-12.6,28.94c-1.55,3.53-2.8,5.3-3.77,5.3-1.06,0-2.03-.88-2.9-2.65-.29-.57-3.38-6.62-9.27-18.16-2.22-4.35-8.25-16.55-18.1-36.61v49.06c0,2.85.05,4.54.14,5.08.1.54.53,1,1.3,1.38,1.45.82,3.91,1.2,7.39,1.14,3.48-.06,5.21.29,5.21,1.04,0,.44-.72.66-2.17.66l-12.89-.38c-2.22-.06-4.78-.02-7.68.13-3.86.17-6.47.25-7.82.25-2.03,0-3.04-.28-3.04-.85,0-.5.82-.76,2.46-.76,3.86,0,6.18-.03,6.95-.09,2.99-.25,4.73-.98,5.21-2.18.29-.76.43-2.33.43-4.74v-45.19c0-5.05-.46-8-1.38-8.86-.92-.85-4.37-1.28-10.35-1.28-1.55,0-2.32-.28-2.32-.85,0-.63.82-.91,2.45-.85h31.17c.29,0,.82.04,1.59.12,8.24,17.43,15.22,31.91,20.94,43.43l19.56-43.55h3.04s19.13,0,19.13,0h13.04c1.93,0,2.9.27,2.9.8,0,.6-.58.87-1.74.8h-3.33c-4.05-.13-6.78.13-8.18.76-1.4.63-2.1,1.86-2.1,3.69v53.44c0,2.27.91,3.58,2.73,3.92,1.82.35,4.52.49,8.11.43,3.59-.06,5.38.22,5.38.85Z"/>
      <path class="cls-1" d="M189.08,335.66c0,.54-.63.8-1.88.8-.68,0-1.3-.03-1.88-.09-5.79-.19-10.77-.28-14.92-.28s-10.72.09-19.12.28c-2.8.06-4.88.09-6.23.09-1.45,0-2.17-.28-2.17-.85,0-.31.26-.5.8-.57.53-.06,2.39-.13,5.58-.19,2.99-.38,4.73-.96,5.21-1.75.48-.79.72-3.33.72-7.61v-49c-.1-1.14-.15-1.67-.15-1.61,0-1.58-2.41-2.36-7.24-2.36-2.7,0-4.06-.22-4.06-.66s.19-.69.58-.76c.38-.06,1.64-.09,3.77-.09-.97,0,.77,0,5.21,0h32.87c1.25,0,1.88.24,1.88.72,0,.36-.22.58-.65.67-.43.09-1.91.16-4.42.22-2.99.13-4.83.54-5.5,1.23l-.43,1.79v53.36c0,2.71.46,4.31,1.38,4.82.92.5,4.03.85,9.34,1.04.87.07,1.3.34,1.3.8Z"/>
      <path class="cls-1" d="M288.71,316.08c0,.6-1.81.87-5.44.8-4.3-.06-6.59.57-6.87,1.88-.19.75-.29,3.23-.29,7.44v3.86c-11.49,5.09-22.45,7.63-32.87,7.63-13.71,0-25.18-3.15-34.39-9.46-9.22-6.31-13.83-14.16-13.83-23.55,0-9.96,4.73-18.26,14.19-24.88,9.46-6.62,21.34-9.93,35.62-9.93,5.89,0,11.97.95,18.25,2.84,2.32.69,3.91,1.04,4.78,1.04,1.54,0,2.85-.76,3.91-2.27.48-.76,1.01-1.13,1.59-1.13.67,0,1.01.32,1.01.95,0,.13-.14,1.39-.43,3.78-.1.76-.15,2.55-.15,5.39,0,2.14.19,5.42.58,9.84,0,1.2-.48,1.8-1.45,1.8-1.35,0-2.27-1.26-2.75-3.78-1.16-5.55-3.96-9.93-8.4-13.15-3.28-2.33-7.87-3.5-13.76-3.5-18.25,0-27.37,10.59-27.37,31.78,0,13.18,3,22.36,9.02,27.53,3.78,3.28,8.82,4.92,15.12,4.92,7.95,0,11.92-3.28,11.92-9.84,0-4.92-.32-7.68-.95-8.28-.64-.6-2.27-.9-4.91-.9h-3.66c-2.05,0-3.08-.28-3.08-.85s.82-.85,2.46-.85c3.38,0,7.63.03,12.74.09h27.66c1.16,0,1.74.27,1.74.8Z"/>
      <path class="cls-1" d="M391.82,336.37c0,.38-.43.57-1.3.57-.68,0-1.3-.02-1.88-.07-3.38-.27-12.84-.41-28.38-.41h-11.15c-2.99.06-4.49-.2-4.49-.8,0-.53,1.21-.83,3.62-.9,2.12-.06,3.98-.33,5.58-.8,1.59-.47,2.39-1.02,2.39-1.65.09-.38.19-1.41.29-3.11v-26.6h-34.47v29.23c.09,1.64,2.03,2.62,5.79,2.93,2.99.25,4.73.43,5.21.52.48.09.72.3.72.62,0,.38-.48.57-1.45.57-1.26,0-4.59-.06-9.99-.19-5.41-.13-7.68-.19-6.81-.19-.58,0-3.55.06-8.91.19-5.36.13-10.45.19-15.28.19h-1.45c-1.74,0-2.61-.28-2.61-.85,0-.5.67-.76,2.03-.76,4.54,0,7.68-.38,9.41-1.13.77-.31,1.16-1.98,1.16-5.01v-52.14c0-2.01-.84-3.23-2.52-3.64-1.68-.41-4.4-.61-8.15-.61-1.29,0-1.93-.25-1.93-.76,0-.31.53-.5,1.6-.57-.39,0,3.24,0,10.9,0h31.96c1.36,0,2.03.31,2.03.94,0,.44-.26.71-.77.8-.51.09-2.14.17-4.89.24-2.75.06-4.44.45-5.1,1.17-.65.72-.98,2.02-.98,3.9v22.18l3.43.19c9.53.25,19.88.19,31.03-.19v-21.17c0-4.3-2.38-6.45-7.12-6.45-3.17,0-4.75-.28-4.75-.85,0-.51.62-.76,1.87-.76h43.9c.96,0,1.44.19,1.44.57,0,.44-1.79.76-5.36.95-3.57.19-5.79.68-6.66,1.46-.87.79-1.3,2.75-1.3,5.9v46.47c0,4.09.8,6.57,2.39,7.42s4.32,1.34,8.18,1.46c1.83.06,2.75.44,2.75,1.13Z"/>
      <path class="cls-1" d="M477.55,288.51c0,.5-.34.75-1.01.75-1.06,0-2.03-1.21-2.9-3.65-1.74-4.8-4.15-8.07-7.24-9.82-3.09-1.74-8.02-2.62-14.77-2.62h-6.81v57.51c.1,1.58.78,2.59,2.05,3.03,1.27.44,4.68.82,10.25,1.13,1.07.06,1.61.35,1.61.85,0,.63-.77.95-2.32.95-.29,0-1.01-.03-2.17-.09-1.45-.06-2.66-.09-3.62-.09l-14.92-.28-24.62.47c-1.35,0-2.03-.25-2.03-.76,0-.38.19-.6.58-.66.38-.06,1.98-.13,4.78-.19,5.31-.13,8.16-.95,8.54-2.47.19-.82.29-7.24.29-19.26v-40.13h-3.77c-7.72,0-13.35.93-16.87,2.78-3.53,1.85-5.82,5.13-6.88,9.83-.68,2.76-1.55,4.14-2.61,4.14-.87,0-1.3-.38-1.3-1.13,0-.5.19-2.24.58-5.2.77-6.18,1.25-10.41,1.45-12.68h12.74c.29,0,3.64.05,10.06.14,6.42.09,14.6.14,24.55.14,5.5,0,10.43-.02,14.77-.07,4.34-.05,8.3-.07,11.88-.07,3.19,0,5.6-.05,7.24-.14.29,4.08,1.01,9.29,2.17,15.62.19,1.07.29,1.72.29,1.98Z"/>
      <path class="cls-1" d="M564.73,271.9c0,.42-.63.66-1.88.72-5.7.19-9.12.63-10.28,1.33-1.06.13-4.73,4.84-11.01,14.15-1.35,2.03-3.38,4.94-6.08,8.74-3.31,4.43-5.25,7.32-5.81,8.68-.57,1.36-.85,3.84-.85,7.44v19.06c0,1.08.7,1.79,2.1,2.13,1.4.35,4.17.55,8.33.62,2.12,0,3.19.3,3.19.89,0,.48-.92.72-2.76.72-.39,0-1.5-.03-3.34-.09-2.23,0-5.33-.03-9.3-.09l-11.62-.09c-.29,0-1.55.03-3.78.09-2.71.06-5.13.09-7.26.09l-9.15.09c-1.55,0-2.32-.25-2.32-.76s.67-.76,2.03-.76c6.85-.06,10.62-.47,11.3-1.23.67-.44,1.01-1.45,1.01-3.02v-22.38c-2.69-4.78-7.41-11.27-14.14-19.46-2.79-3.84-6.73-8.66-11.83-14.45-1.35-1.13-3.7-1.7-7.07-1.7h-3.03c-1.92,0-2.88-.35-2.88-1.04,0-.57,1.01-.85,3.04-.85-.29,0,.12.03,1.23.09,1.11.06,2.97.09,5.58.09l17.09.09h3.19c1.74-.19,3.86-.28,6.37-.28h11.59c1.06,0,1.54,0,1.45,0,1.93,0,2.9.25,2.9.76,0,.38-.22.6-.65.66-.43.06-2.15.13-5.14.19-5.31.13-7.96.89-7.96,2.28,0,1.01.34,2.04,1.01,3.08.67,1.04,2.94,4.13,6.8,9.25,3.37,4.43,7.42,9.61,12.14,15.56,2.98-3.47,7.21-9.22,12.68-17.23,4.21-6.02,6.32-9.57,6.32-10.64,0-1.39-1.4-2.09-4.2-2.09-4.25.06-6.37-.22-6.37-.86,0-.7.92-1.01,2.75-.95l4.05.14c2.7.09,7.29.14,13.76.14h5.5c2.22,0,3.33.3,3.33.89Z"/>
    </g>
    <g>
      <path class="cls-1" d="M142.15,335.71c0,.63-.97.95-2.9.95h-47.79c-1.35,0-2.03-.27-2.03-.8s.67-.8,2.03-.8h4.92c4.44.06,7.14-.44,8.11-1.52.29-.31.43-2.21.43-5.68v-51.35c-3.13,5.23-7.23,13.56-12.31,24.97l-12.6,28.94c-1.55,3.53-2.8,5.3-3.77,5.3-1.06,0-2.03-.88-2.9-2.65-.29-.57-3.38-6.62-9.27-18.16-2.22-4.35-8.25-16.55-18.1-36.61v49.06c0,2.85.05,4.54.14,5.08.1.54.53,1,1.3,1.38,1.45.82,3.91,1.2,7.39,1.14,3.48-.06,5.21.29,5.21,1.04,0,.44-.72.66-2.17.66l-12.89-.38c-2.22-.06-4.78-.02-7.68.13-3.86.17-6.47.25-7.82.25-2.03,0-3.04-.28-3.04-.85,0-.5.82-.76,2.46-.76,3.86,0,6.18-.03,6.95-.09,2.99-.25,4.73-.98,5.21-2.18.29-.76.43-2.33.43-4.74v-45.19c0-5.05-.46-8-1.38-8.86-.92-.85-4.37-1.28-10.35-1.28-1.55,0-2.32-.28-2.32-.85,0-.63.82-.91,2.45-.85h31.17c.29,0,.82.04,1.59.12,8.24,17.43,15.22,31.91,20.94,43.43l19.56-43.55h3.04s19.13,0,19.13,0h13.04c1.93,0,2.9.27,2.9.8,0,.6-.58.87-1.74.8h-3.33c-4.05-.13-6.78.13-8.18.76-1.4.63-2.1,1.86-2.1,3.69v53.44c0,2.27.91,3.58,2.73,3.92,1.82.35,4.52.49,8.11.43,3.59-.06,5.38.22,5.38.85Z"/>
      <path class="cls-1" d="M189.08,335.66c0,.54-.63.8-1.88.8-.68,0-1.3-.03-1.88-.09-5.79-.19-10.77-.28-14.92-.28s-10.72.09-19.12.28c-2.8.06-4.88.09-6.23.09-1.45,0-2.17-.28-2.17-.85,0-.31.26-.5.8-.57.53-.06,2.39-.13,5.58-.19,2.99-.38,4.73-.96,5.21-1.75.48-.79.72-3.33.72-7.61v-49c-.1-1.14-.15-1.67-.15-1.61,0-1.58-2.41-2.36-7.24-2.36-2.7,0-4.06-.22-4.06-.66s.19-.69.58-.76c.38-.06,1.64-.09,3.77-.09-.97,0,.77,0,5.21,0h32.87c1.25,0,1.88.24,1.88.72,0,.36-.22.58-.65.67-.43.09-1.91.16-4.42.22-2.99.13-4.83.54-5.5,1.23l-.43,1.79v53.36c0,2.71.46,4.31,1.38,4.82.92.5,4.03.85,9.34,1.04.87.07,1.3.34,1.3.8Z"/>
      <path class="cls-1" d="M288.71,316.08c0,.6-1.81.87-5.44.8-4.3-.06-6.59.57-6.87,1.88-.19.75-.29,3.23-.29,7.44v3.86c-11.49,5.09-22.45,7.63-32.87,7.63-13.71,0-25.18-3.15-34.39-9.46-9.22-6.31-13.83-14.16-13.83-23.55,0-9.96,4.73-18.26,14.19-24.88,9.46-6.62,21.34-9.93,35.62-9.93,5.89,0,11.97.95,18.25,2.84,2.32.69,3.91,1.04,4.78,1.04,1.54,0,2.85-.76,3.91-2.27.48-.76,1.01-1.13,1.59-1.13.67,0,1.01.32,1.01.95,0,.13-.14,1.39-.43,3.78-.1.76-.15,2.55-.15,5.39,0,2.14.19,5.42.58,9.84,0,1.2-.48,1.8-1.45,1.8-1.35,0-2.27-1.26-2.75-3.78-1.16-5.55-3.96-9.93-8.4-13.15-3.28-2.33-7.87-3.5-13.76-3.5-18.25,0-27.37,10.59-27.37,31.78,0,13.18,3,22.36,9.02,27.53,3.78,3.28,8.82,4.92,15.12,4.92,7.95,0,11.92-3.28,11.92-9.84,0-4.92-.32-7.68-.95-8.28-.64-.6-2.27-.9-4.91-.9h-3.66c-2.05,0-3.08-.28-3.08-.85s.82-.85,2.46-.85c3.38,0,7.63.03,12.74.09h27.66c1.16,0,1.74.27,1.74.8Z"/>
      <path class="cls-1" d="M391.82,336.37c0,.38-.43.57-1.3.57-.68,0-1.3-.02-1.88-.07-3.38-.27-12.84-.41-28.38-.41h-11.15c-2.99.06-4.49-.2-4.49-.8,0-.53,1.21-.83,3.62-.9,2.12-.06,3.98-.33,5.58-.8,1.59-.47,2.39-1.02,2.39-1.65.09-.38.19-1.41.29-3.11v-26.6h-34.47v29.23c.09,1.64,2.03,2.62,5.79,2.93,2.99.25,4.73.43,5.21.52.48.09.72.3.72.62,0,.38-.48.57-1.45.57-1.26,0-4.59-.06-9.99-.19-5.41-.13-7.68-.19-6.81-.19-.58,0-3.55.06-8.91.19-5.36.13-10.45.19-15.28.19h-1.45c-1.74,0-2.61-.28-2.61-.85,0-.5.67-.76,2.03-.76,4.54,0,7.68-.38,9.41-1.13.77-.31,1.16-1.98,1.16-5.01v-52.14c0-2.01-.84-3.23-2.52-3.64-1.68-.41-4.4-.61-8.15-.61-1.29,0-1.93-.25-1.93-.76,0-.31.53-.5,1.6-.57-.39,0,3.24,0,10.9,0h31.96c1.36,0,2.03.31,2.03.94,0,.44-.26.71-.77.8-.51.09-2.14.17-4.89.24-2.75.06-4.44.45-5.1,1.17-.65.72-.98,2.02-.98,3.9v22.18l3.43.19c9.53.25,19.88.19,31.03-.19v-21.17c0-4.3-2.38-6.45-7.12-6.45-3.17,0-4.75-.28-4.75-.85,0-.51.62-.76,1.87-.76h43.9c.96,0,1.44.19,1.44.57,0,.44-1.79.76-5.36.95-3.57.19-5.79.68-6.66,1.46-.87.79-1.3,2.75-1.3,5.9v46.47c0,4.09.8,6.57,2.39,7.42s4.32,1.34,8.18,1.46c1.83.06,2.75.44,2.75,1.13Z"/>
      <path class="cls-1" d="M477.55,288.51c0,.5-.34.75-1.01.75-1.06,0-2.03-1.21-2.9-3.65-1.74-4.8-4.15-8.07-7.24-9.82-3.09-1.74-8.02-2.62-14.77-2.62h-6.81v57.51c.1,1.58.78,2.59,2.05,3.03,1.27.44,4.68.82,10.25,1.13,1.07.06,1.61.35,1.61.85,0,.63-.77.95-2.32.95-.29,0-1.01-.03-2.17-.09-1.45-.06-2.66-.09-3.62-.09l-14.92-.28-24.62.47c-1.35,0-2.03-.25-2.03-.76,0-.38.19-.6.58-.66.38-.06,1.98-.13,4.78-.19,5.31-.13,8.16-.95,8.54-2.47.19-.82.29-7.24.29-19.26v-40.13h-3.77c-7.72,0-13.35.93-16.87,2.78-3.53,1.85-5.82,5.13-6.88,9.83-.68,2.76-1.55,4.14-2.61,4.14-.87,0-1.3-.38-1.3-1.13,0-.5.19-2.24.58-5.2.77-6.18,1.25-10.41,1.45-12.68h12.74c.29,0,3.64.05,10.06.14,6.42.09,14.6.14,24.55.14,5.5,0,10.43-.02,14.77-.07,4.34-.05,8.3-.07,11.88-.07,3.19,0,5.6-.05,7.24-.14.29,4.08,1.01,9.29,2.17,15.62.19,1.07.29,1.72.29,1.98Z"/>
      <path class="cls-1" d="M564.73,271.9c0,.42-.63.66-1.88.72-5.7.19-9.12.63-10.28,1.33-1.06.13-4.73,4.84-11.01,14.15-1.35,2.03-3.38,4.94-6.08,8.74-3.31,4.43-5.25,7.32-5.81,8.68-.57,1.36-.85,3.84-.85,7.44v19.06c0,1.08.7,1.79,2.1,2.13,1.4.35,4.17.55,8.33.62,2.12,0,3.19.3,3.19.89,0,.48-.92.72-2.76.72-.39,0-1.5-.03-3.34-.09-2.23,0-5.33-.03-9.3-.09l-11.62-.09c-.29,0-1.55.03-3.78.09-2.71.06-5.13.09-7.26.09l-9.15.09c-1.55,0-2.32-.25-2.32-.76s.67-.76,2.03-.76c6.85-.06,10.62-.47,11.3-1.23.67-.44,1.01-1.45,1.01-3.02v-22.38c-2.69-4.78-7.41-11.27-14.14-19.46-2.79-3.84-6.73-8.66-11.83-14.45-1.35-1.13-3.7-1.7-7.07-1.7h-3.03c-1.92,0-2.88-.35-2.88-1.04,0-.57,1.01-.85,3.04-.85-.29,0,.12.03,1.23.09,1.11.06,2.97.09,5.58.09l17.09.09h3.19c1.74-.19,3.86-.28,6.37-.28h11.59c1.06,0,1.54,0,1.45,0,1.93,0,2.9.25,2.9.76,0,.38-.22.6-.65.66-.43.06-2.15.13-5.14.19-5.31.13-7.96.89-7.96,2.28,0,1.01.34,2.04,1.01,3.08.67,1.04,2.94,4.13,6.8,9.25,3.37,4.43,7.42,9.61,12.14,15.56,2.98-3.47,7.21-9.22,12.68-17.23,4.21-6.02,6.32-9.57,6.32-10.64,0-1.39-1.4-2.09-4.2-2.09-4.25.06-6.37-.22-6.37-.86,0-.7.92-1.01,2.75-.95l4.05.14c2.7.09,7.29.14,13.76.14h5.5c2.22,0,3.33.3,3.33.89Z"/>
    </g>
  </g>
  <text class="cls-3" transform="translate(5.8 516.8) scale(.74 1)"><tspan x="0" y="0">NINETY</tspan></text>
  <circle class="cls-5" cx="284.89" cy="604.6" r="93.58"/>
  <text class="cls-2" transform="translate(204.41 647.12)"><tspan x="0" y="0">90</tspan></text>
  <rect x="10.51" y="525.86" width="200.74" height="9.52" rx="4.76" ry="4.76"/>
  <rect x="27.89" y="544.77" width="171.44" height="8.89" rx="4.45" ry="4.45"/>
  <rect x="37.35" y="562.41" width="152.41" height="6.74" rx="3.37" ry="3.37"/>
  <rect x="50.14" y="577.91" width="134.92" height="7.79" rx="2.46" ry="2.46"/>
  <rect x="80.85" y="595.02" width="102.11" height="6.37" rx="3.18" ry="3.18"/>
  <rect x="358.07" y="526.14" width="200.74" height="9.52" rx="4.76" ry="4.76" transform="translate(916.88 1061.8) rotate(-180)"/>
  <rect x="370" y="545.05" width="171.44" height="8.89" rx="4.45" ry="4.45" transform="translate(911.43 1098.99) rotate(-180)"/>
  <rect x="379.56" y="562.69" width="152.41" height="6.74" rx="3.37" ry="3.37" transform="translate(911.53 1132.11) rotate(-180)"/>
  <rect x="384.27" y="578.19" width="134.92" height="7.79" rx="2.46" ry="2.46" transform="translate(903.45 1164.17) rotate(-180)"/>
  <rect x="386.36" y="595.3" width="102.11" height="6.37" rx="3.18" ry="3.18" transform="translate(874.84 1196.97) rotate(-180)"/>
  <circle class="cls-4" cx="284.89" cy="604.6" r="102.41"/>
</svg>